<svg data-v-0dd9719b="" version="1.0" xmlns="http://www.w3.org/2000/svg" xmlns:xlink="http://www.w3.org/1999/xlink" width="100%" height="100%" viewBox="0 0 340.000000 250.000000" preserveAspectRatio="xMidYMid meet" color-interpolation-filters="sRGB" style="margin: auto;"> <rect data-v-0dd9719b="" x="0" y="0" width="100%" height="100%" fill="#ffffff" fill-opacity="1" class="background"></rect> <rect data-v-0dd9719b="" x="0" y="0" width="100%" height="100%" fill="url(#watermark)" fill-opacity="1" class="watermarklayer"></rect> <g data-v-0dd9719b="" fill="#1b758c" class="icon-text-wrapper icon-svg-group iconsvg" transform="translate(48.214996337890625,95.00509834289551)"><g class="iconsvg-imagesvg" transform="translate(0,0)"><g><rect fill="#1b758c" fill-opacity="0" stroke-width="2" x="0" y="0" width="60" height="59.98980173370527" class="image-rect"></rect> <svg filter="url(#colors3994973691)" x="0" y="0" width="60" height="59.98980173370527" filtersec="colorsf6009175401" class="image-svg-svg primary" style="overflow: visible;"><svg xmlns="http://www.w3.org/2000/svg" viewBox="0 0 297.6700134277344 297.6200256347656">
  <g data-name="图层 2">
    <path d="m5 62.86 2.99.76L70.85.77 67.86 0 5 62.86zm14.04 3.76 3.58.93L85.48 4.69l-3.59-.93-62.85 62.86zm14.03 3.76 4.19 1.09 62.85-62.85-4.18-1.1-62.86 62.86zm14.04 3.76 4.77 1.25 62.86-62.85-4.78-1.26-62.85 62.86zm14.04 3.76 5.37 1.41 62.85-62.85-5.37-1.42L61.15 77.9zm14.03 3.76 5.97 1.58L144 20.38l-5.97-1.58-62.85 62.86zm14.04 3.76 6.56 1.74 62.85-62.86-6.56-1.74-62.85 62.86zm14.03 3.76 7.16 1.9 62.85-62.85-7.16-1.91-62.85 62.86zm14.03 3.76 7.76 2.06 62.86-62.85-7.76-2.07-62.86 62.86zm14.04 3.76 8.35 2.23 62.86-62.86-8.36-2.23-62.85 62.86zm14.03 3.76 8.95 2.39 62.86-62.86-8.95-2.39-62.86 62.86zm14.04 3.76 9.54 2.55 62.86-62.85-9.54-2.56-62.86 62.86zm14.04 3.76 10.13 2.71 62.86-62.85-10.14-2.72-62.85 62.86zm14.03 3.76 10.73 2.88 62.86-62.86-10.74-2.88-62.85 62.86zm-49.83 185.88-.83-2.98-85.86-23 .83 2.97 85.86 23.01zm-3.76-14.04-.99-3.57L47.02 257l.99 3.57 85.86 23.01zm-3.76-14.03-1.15-4.17-85.86-23.01 1.14 4.17 85.87 23.01zm-3.76-14.04-1.3-4.76-85.87-23.01 1.3 4.77 85.87 23zm-3.76-14.04-1.46-5.35-85.86-23.01 1.45 5.36 85.87 23zm-3.76-14.03-1.62-5.96-85.86-23 1.61 5.96 85.87 23zm-3.77-14.03-1.77-6.56-85.86-23.01 1.77 6.56 85.86 23.01zm-3.76-14.04-1.93-7.15-85.86-23.01 1.93 7.16 85.86 23zm-3.76-14.03-2.09-7.75-85.86-23.01 2.09 7.75 85.86 23.01zm-3.76-14.04-2.25-8.34-85.86-23.01 2.25 8.35 85.86 23zm-3.76-14.03-2.4-8.95-85.86-23 2.4 8.94 85.86 23.01zm-3.76-14.04-2.56-9.54-85.86-23 2.55 9.54 85.87 23zM92.5 129.2l-2.72-10.14L3.92 96.05l2.71 10.14L92.5 129.2zm-3.76-14.04-2.88-10.73L0 81.42l2.87 10.74 85.87 23zm185.91-49.79-2.15 2.21 23 85.86 2.17-2.21-23.02-85.86zm-10.27 10.27-2.59 2.64 23 85.87 2.6-2.64-23.01-85.87zm-10.27 10.28L251.07 89l23.01 85.86 3.04-3.08-23.01-85.86zm-10.28 10.27-3.47 3.51 23.01 85.87 3.47-3.51-23.01-85.87zm-10.27 10.28-3.91 3.94 23 85.87 3.92-3.95-23.01-85.86zm-10.28 10.27-4.34 4.38 23 85.86 4.35-4.37-23.01-85.87zm-10.27 10.28-4.79 4.81 23.01 85.86 4.79-4.81-23.01-85.86zm-10.27 10.27-5.23 5.25 23.01 85.86 5.23-5.24-23.01-85.87zm-10.28 10.28-5.66 5.68 23 85.86 5.67-5.68-23.01-85.86zm-10.27 10.27-6.1 6.12 23 85.86 6.11-6.11-23.01-85.87zm-10.27 10.28-6.55 6.55 23.01 85.86 6.55-6.55-23.01-85.86zm-10.28 10.27-6.98 6.99 23.01 85.86 6.98-6.99-23.01-85.86zm-10.27 10.28-7.42 7.42 23 85.86 7.43-7.42-23.01-85.86zm-10.28 10.27-7.85 7.86 23 85.86 7.86-7.86-23.01-85.86z" data-name="Layer 1" fill="#231f20"></path>
  </g>
</svg></svg> <defs><filter id="colors3994973691"><feColorMatrix type="matrix" values="0 0 0 0 0.10546875  0 0 0 0 0.45703125  0 0 0 0 0.546875  0 0 0 1 0" class="icon-fecolormatrix"></feColorMatrix></filter> <filter id="colorsf6009175401"><feColorMatrix type="matrix" values="0 0 0 0 0.99609375  0 0 0 0 0.99609375  0 0 0 0 0.99609375  0 0 0 1 0" class="icon-fecolormatrix"></feColorMatrix></filter> <filter id="colorsb1372934415"><feColorMatrix type="matrix" values="0 0 0 0 0  0 0 0 0 0  0 0 0 0 0  0 0 0 1 0" class="icon-fecolormatrix"></feColorMatrix></filter></defs></g></g> <g transform="translate(67,13.534902572631836)"><g data-gra="path-name" fill-rule="" class="tp-name iconsvg-namesvg"><g transform="scale(1)"><g><path d="M14.49 0.5Q8.69 0.5 3.61-1.69L3.61-1.69Q3.06-1.92 2.67-2.47 2.29-3.02 2.29-3.61L2.29-3.61Q2.29-4.43 2.83-5.01 3.38-5.58 4.21-5.58L4.21-5.58Q4.71-5.58 5.07-5.39L5.07-5.39Q9.33-3.52 14.08-3.52L14.08-3.52Q22.04-3.52 22.04-8.73L22.04-8.73Q22.04-10.1 21.03-10.97L21.03-10.97Q20.12-11.84 18.75-12.34 17.37-12.85 14.22-13.67L14.22-13.67Q10.61-14.58 8.23-15.54L8.23-15.54Q5.44-16.6 4.02-18.49 2.61-20.39 2.61-23L2.61-23Q2.61-25.6 3.98-27.8L3.98-27.8Q5.39-30.04 8.16-31.23 10.93-32.42 14.49-32.42L14.49-32.42Q19.52-32.42 23.59-30.91L23.59-30.91Q24.92-30.4 24.92-29.03L24.92-29.03Q24.92-28.3 24.37-27.68 23.82-27.07 23.04-27.07L23.04-27.07Q22.72-27.07 22.31-27.25L22.31-27.25Q18.75-28.48 14.95-28.48L14.95-28.48Q11.29-28.48 9.08-27.11 6.86-25.74 6.86-23.32L6.86-23.32Q6.86-21.67 7.96-20.71L7.96-20.71Q8.96-19.75 10.47-19.16 11.98-18.56 15-17.88L15-17.88Q18.84-16.96 20.85-16.14L20.85-16.14Q23.27-15.22 24.76-13.3 26.24-11.38 26.24-8.46L26.24-8.46Q26.24-5.94 24.78-3.84L24.78-3.84Q23.27-1.74 20.6-0.62 17.92 0.5 14.49 0.5L14.49 0.5ZM40.37 0.27Q39.5 0.27 38.88-0.34 38.27-0.96 38.27-1.83L38.27-1.83 38.27-27.98 28.99-27.98Q28.16-27.98 27.59-28.55 27.02-29.12 27.02-29.95L27.02-29.95Q27.02-30.77 27.59-31.36 28.16-31.96 28.99-31.96L28.99-31.96 51.76-31.96Q52.58-31.96 53.17-31.36 53.77-30.77 53.77-29.95L53.77-29.95Q53.77-29.12 53.17-28.55 52.58-27.98 51.76-27.98L51.76-27.98 42.52-27.98 42.52-1.83Q42.52-0.96 41.88-0.34 41.24 0.27 40.37 0.27L40.37 0.27ZM60.81 0.05Q59.94 0.05 59.32-0.57 58.7-1.19 58.7-2.06L58.7-2.06 58.7-29.81Q58.7-30.68 59.32-31.32 59.94-31.96 60.81-31.96L60.81-31.96 79.14-31.96Q79.96-31.96 80.56-31.36 81.15-30.77 81.15-29.95L81.15-29.95Q81.15-29.12 80.56-28.55 79.96-27.98 79.14-27.98L79.14-27.98 63.51-27.98Q62.96-27.98 62.96-27.43L62.96-27.43 62.96-17.97 77.5-17.97Q78.32-17.97 78.91-17.37 79.51-16.78 79.51-15.96L79.51-15.96Q79.51-15.13 78.91-14.56 78.32-13.99 77.5-13.99L77.5-13.99 62.96-13.99 62.96-4.48Q62.96-3.93 63.51-3.93L63.51-3.93 79.14-3.93Q79.96-3.93 80.56-3.34 81.15-2.74 81.15-1.92L81.15-1.92Q81.15-1.1 80.56-0.53 79.96 0.05 79.14 0.05L79.14 0.05 60.81 0.05ZM87.83 0.27Q86.91 0.27 86.32-0.34 85.73-0.96 85.73-1.83L85.73-1.83Q85.73-2.15 85.95-2.74L85.95-2.74 97.61-30.27Q98.02-31.18 98.71-31.68 99.4-32.19 100.31-32.19L100.31-32.19 100.77-32.19Q101.68-32.19 102.37-31.68 103.05-31.18 103.46-30.27L103.46-30.27 115.12-2.74Q115.35-2.15 115.35-1.83L115.35-1.83Q115.35-0.96 114.76-0.34 114.16 0.27 113.25 0.27L113.25 0.27Q112.56 0.27 112.04-0.07 111.51-0.41 111.24-1.05L111.24-1.05 108.27-8.14 92.81-8.14 89.84-1.05Q89.57-0.41 89.04-0.07 88.51 0.27 87.83 0.27L87.83 0.27ZM100.9-25.88Q100.77-26.2 100.54-26.2L100.54-26.2Q100.31-26.2 100.17-25.88L100.17-25.88 94.41-12.02 106.66-12.02 100.9-25.88ZM124.08 0.05Q123.22 0.05 122.6-0.57 121.98-1.19 121.98-2.06L121.98-2.06 121.98-29.81Q121.98-30.68 122.6-31.32 123.22-31.96 124.08-31.96L124.08-31.96 133.27-31.96Q138.44-31.96 142.19-29.67L142.19-29.67Q145.71-27.39 147.58-23.75 149.46-20.12 149.46-15.96L149.46-15.96Q149.46-11.89 147.63-8.28L147.63-8.28Q145.76-4.43 142.05-2.19 138.35 0.05 133.27 0.05L133.27 0.05 124.08 0.05ZM132.77-3.93Q136.52-3.93 139.35-5.49L139.35-5.49Q142.19-7 143.72-9.69 145.25-12.39 145.25-15.96L145.25-15.96Q145.25-19.52 143.7-22.27L143.7-22.27Q142.14-25.01 139.31-26.49 136.47-27.98 132.77-27.98L132.77-27.98 126.78-27.98Q126.23-27.98 126.23-27.43L126.23-27.43 126.23-4.48Q126.23-3.93 126.78-3.93L126.78-3.93 132.77-3.93ZM165.42 0.27Q164.55 0.27 163.91-0.34 163.27-0.96 163.27-1.83L163.27-1.83 163.27-13.49 152.34-28.76Q151.97-29.49 151.97-30.04L151.97-30.04Q151.97-30.91 152.57-31.55 153.16-32.19 154.03-32.19L154.03-32.19Q155.22-32.19 155.91-31.14L155.91-31.14 165.42-17.28 174.93-31.14Q175.61-32.19 176.8-32.19L176.8-32.19Q177.62-32.19 178.24-31.57 178.86-30.95 178.86-30.13L178.86-30.13Q178.86-29.58 178.49-28.76L178.49-28.76 167.52-13.49 167.52-1.83Q167.52-0.96 166.9-0.34 166.28 0.27 165.42 0.27L165.42 0.27Z" transform="translate(-2.2899999618530273, 32.41999816894531)"></path></g> <!----> <!----> <!----> <!----> <!----> <!----> <!----></g></g> <!----></g></g><defs v-gra="od"></defs></svg>